<svg width="64" height="64" viewBox="0 0 64 64" fill="none" xmlns="http://www.w3.org/2000/svg">
<rect width="64" height="64" fill="#222222"/>
<path d="M13.022 34.314V36.734L3.914 33.038V31.256L13.022 27.626V29.958L7.302 32.114L13.022 34.314ZM21.2036 22.72H23.7996L16.6716 42.146H14.0756L21.2036 22.72ZM32.0769 39L31.1529 36.074H26.0269L25.1029 39H22.4849L27.4789 24.04H29.8109L34.8269 39H32.0769ZM27.4569 31.498L26.7749 33.654H30.3829L29.7009 31.498L28.6009 27.714L27.4569 31.498ZM37.3258 39V24.04H42.3858C44.1751 24.04 45.5391 24.5387 46.4778 25.536C47.4165 26.5333 47.8858 28 47.8858 29.936V33.082C47.8858 35.0327 47.4165 36.5067 46.4778 37.504C45.5391 38.5013 44.1751 39 42.3858 39H37.3258ZM42.2758 26.57H39.9658V36.47H42.2758C43.3171 36.47 44.0578 36.2133 44.4978 35.7C44.9525 35.1867 45.1798 34.314 45.1798 33.082V29.936C45.1798 28.7187 44.9525 27.8533 44.4978 27.34C44.0578 26.8267 43.3171 26.57 42.2758 26.57ZM60.3306 33.104L51.2226 36.734V34.402L56.9426 32.246L51.2226 30.046V27.626L60.3306 31.322V33.104Z" fill="#BFDCF3"/>
</svg>
